HIERARCHY
ROOT Hips
{
	OFFSET 0.00000 0.00000 0.00000
	CHANNELS 6 Xposition Yposition Zposition Zrotation Yrotation Xrotation 
	JOINT LHipJoint
	{
		OFFSET 0 0 0
		CHANNELS 3 Zrotation Yrotation Xrotation
		JOINT LeftHip
		{
			OFFSET 1.59715 -1.91394 0.36268
			CHANNELS 3 Zrotation Yrotation Xrotation
			JOINT LeftKnee
			{
				OFFSET 2.53886 -6.97546 0.00000
				CHANNELS 3 Zrotation Yrotation Xrotation
				JOINT LeftAnkle
				{
					OFFSET 2.77084 -7.61284 0.00000
					CHANNELS 3 Zrotation Yrotation Xrotation
					JOINT LeftToe
					{
						OFFSET 0.19855 -0.54550 2.06057
						CHANNELS 3 Zrotation Yrotation Xrotation
						End Site
						{
							OFFSET 0.00000 -0.00000 1.07182
						}
					}
				}
			}
		}
	}
	JOINT RHipJoint
	{
		OFFSET 0 0 0
		CHANNELS 3 Zrotation Yrotation Xrotation
		JOINT RightHip
		{
			OFFSET -1.71086 -1.91394 0.36268
			CHANNELS 3 Zrotation Yrotation Xrotation
			JOINT RightKnee
			{
				OFFSET -2.59448 -7.12828 0.00000
				CHANNELS 3 Zrotation Yrotation Xrotation
				JOINT RightAnkle
				{
					OFFSET -2.80237 -7.69945 0.00000
					CHANNELS 3 Zrotation Yrotation Xrotation
					JOINT RightToe
					{
						OFFSET -0.18280 -0.50224 2.06614
						CHANNELS 3 Zrotation Yrotation Xrotation
						End Site
						{
							OFFSET -0.00000 -0.00000 1.07055
						}
					}
				}
			}
		}
	}
	JOINT lowerback
	{
		OFFSET 0 0 0
		CHANNELS 3 Zrotation Yrotation Xrotation
		JOINT Chest
		{
			OFFSET 0.04838 1.91536 -0.09733
			CHANNELS 3 Zrotation Yrotation Xrotation
			JOINT Chest2
			{
				OFFSET 0.04097 1.92183 -0.02751
				CHANNELS 3 Zrotation Yrotation Xrotation
				JOINT lowerneck
				{
					OFFSET 0 0 0
					CHANNELS 3 Zrotation Yrotation Xrotation
					JOINT Neck
					{
						OFFSET 0.18766 3.12816 0.13727
						CHANNELS 3 Zrotation Yrotation Xrotation
						JOINT Head
						{
							OFFSET -0.11178 3.16074 0.02732
							CHANNELS 3 Zrotation Yrotation Xrotation
							End Site
							{
								OFFSET 0.47685 1.04189 0.57898
							}
						}
					}
				}
				JOINT LeftCollar
				{
					OFFSET 0 0 0
					CHANNELS 3 Zrotation Yrotation Xrotation
					JOINT LeftShoulder
					{
						OFFSET 3.49325 0.99827 -0.10681
CHANNELS 3 Zrotation Xrotation Yrotation
						JOINT LeftElbow
						{
OFFSET 0 -5.128420 0.000000
CHANNELS 3 Zrotation Xrotation Yrotation
							JOINT LeftWrist
							{
OFFSET 0 -3.473960 0.000000
CHANNELS 3 Zrotation Xrotation Yrotation
								JOINT lhand
								{
									OFFSET 0 0 0
CHANNELS 3 Zrotation Xrotation Yrotation
									JOINT LFingers
									{
OFFSET 0 -0.728610 0.000000
CHANNELS 3 Zrotation Xrotation Yrotation
										End Site
										{
OFFSET 0 -0.587420 0.000000
										}
									}
								}
								JOINT LThumb
								{
OFFSET 0 0.000000 0.000000
CHANNELS 3 Zrotation Xrotation Yrotation
									End Site
									{
OFFSET 0 -0.596390 0.596390
									}
								}
							}
						}
					}
				}
				JOINT RightCollar
				{
					OFFSET 0 0 0
					CHANNELS 3 Zrotation Yrotation Xrotation
					JOINT RightShoulder
					{
						OFFSET -3.23261 1.50670 -0.18692
CHANNELS 3 Zrotation Xrotation Yrotation
						JOINT RightElbow
						{
OFFSET 0 -5.484770 -0.000000
CHANNELS 3 Zrotation Xrotation Yrotation
							JOINT RightWrist
							{
OFFSET 0 -3.478560 0.000000
CHANNELS 3 Zrotation Xrotation Yrotation
								JOINT rhand
								{
									OFFSET 0 0 0
CHANNELS 3 Zrotation Xrotation Yrotation
									JOINT RFingers
									{
OFFSET 0 -0.709970 0.000000
CHANNELS 3 Zrotation Xrotation Yrotation
										End Site
										{
OFFSET 0 -0.572400 0.000000
										}
									}
								}
								JOINT RThumb
								{
OFFSET 0 0.000000 0.000000
CHANNELS 3 Zrotation Xrotation Yrotation
									End Site
									{
OFFSET 0 -0.581140 0.581140
									}
								}
							}
						}
					}
				}
			}
		}
	}
}
MOTION
Frames: 10
Frame Time: 0.008333333333333333
0.172200 18.140900 -12.837500 -2.243300 3.393300 3.894400 0.000000 0.000000 0.000000 -19.736000 -13.542100 -9.911100 2.160000 9.191700 26.396800 0.738600 2.527900 -17.341500 0.143300 2.439600 6.722100 0.000000 0.000000 0.000000 25.077900 9.132200 -12.995500 -2.932300 -10.584600 30.891500 -0.665300 -11.246100 -23.300100 -2.134400 -9.140600 26.236100 1.355900 -0.784100 0.976500 2.847700 -0.979400 -1.067500 2.184700 -0.487400 -1.615100 -4.852500 -3.372400 -16.440300 -1.001200 -3.147600 21.664700 0.046400 -1.978800 9.650400 -0.000000 0.000000 0.000000 -4.899600 -0.626800 -7.599700 13.405800 -21.878900 2.602500 13.044500 23.109400 -32.211000 0.000000 0.000000 0.000000 -7.125000 0.000000 0.000000 -22.534900 61.452300 9.288800 -0.000000 0.000000 0.000000 -2.060500 -3.094100 17.213500 -11.428200 -18.941600 -1.912600 -25.084600 -5.132700 -14.642600 0.000000 0.000000 0.000000 7.125000 0.000000 -0.000000 1.652000 13.892600 1.207500
0.152879 18.139442 -12.816270 -2.210889 3.444328 3.944773 0.000000 0.000000 0.000000 -19.691798 -13.450787 -9.912645 2.144307 9.160487 26.298648 0.734637 2.494283 -17.280335 0.118736 2.221060 6.117011 0.000000 0.000000 0.000000 25.136288 9.245864 -12.948714 -2.938231 -10.594338 30.923708 -0.691623 -11.230807 -23.516774 -2.239316 -9.347651 26.889110 1.252580 -0.760774 0.836920 2.906099 -0.954924 -1.025522 2.299364 -0.473841 -1.491634 -4.971938 -3.339619 -16.165250 -0.916847 -3.107016 21.696948 0.105090 -1.960544 9.613783 0.000000 0.000000 0.000000 -5.186310 -0.454862 -7.564211 13.389698 -21.855540 2.596542 12.900199 23.288954 -32.094888 0.000000 0.000000 0.000000 -7.125000 0.000000 0.000000 -22.587074 61.310951 9.235992 0.000000 0.000000 0.000000 -1.915832 -2.836296 17.281016 -11.365026 -18.845574 -1.892171 -24.096701 -5.308773 -14.325306 0.000000 0.000000 0.000000 7.125000 0.000000 0.000000 2.299521 14.360029 1.658706
0.133257 18.140332 -12.807409 -2.094446 3.316770 4.114972 0.000000 0.000000 0.000000 -19.711249 -13.339682 -10.087054 2.144495 9.160746 26.299415 0.743924 2.449705 -17.358386 0.113933 2.176092 5.992427 0.000000 0.000000 0.000000 25.057816 9.397730 -13.068788 -2.943070 -10.602344 30.950075 -0.689735 -11.277360 -23.545240 -2.163565 -9.198634 26.418715 1.213163 -0.782422 0.931161 2.865549 -0.984004 -0.967677 2.281223 -0.488402 -1.484252 -4.847906 -3.322595 -16.530837 -1.144278 -3.032945 22.096696 0.005183 -1.947611 9.816430 0.000000 0.000000 0.000000 -5.195983 -0.468127 -7.374235 13.350034 -21.797908 2.581829 13.010780 23.357103 -32.402278 0.000000 0.000000 0.000000 -7.125000 0.000000 0.000000 -22.740115 61.618265 9.468056 0.000000 0.000000 0.000000 -1.730467 -2.628527 17.825076 -11.599135 -19.200812 -1.968464 -24.320110 -5.565780 -14.401178 0.000000 0.000000 0.000000 7.125000 0.000000 0.000000 2.152821 14.250658 1.557780
0.111383 18.139442 -12.795747 -2.358586 3.238394 4.066986 0.000000 0.000000 0.000000 -19.345686 -13.393636 -10.079533 2.165616 9.202890 26.432085 0.750128 2.570261 -17.487448 0.106633 2.105351 5.796877 0.000000 0.000000 0.000000 25.455349 9.474377 -12.858428 -2.910916 -10.549374 30.774879 -0.674705 -11.358592 -23.492688 -2.183621 -9.238436 26.544198 1.457342 -0.791574 1.173519 2.960355 -0.985526 -0.880880 2.244964 -0.491326 -1.533867 -4.770555 -3.374612 -16.487842 -1.212503 -3.109979 22.364208 -0.043882 -1.988300 9.902365 0.000000 0.000000 0.000000 -5.114075 -0.398833 -7.243512 13.226340 -21.617960 2.536087 13.138238 23.707819 -32.019492 0.000000 0.000000 0.000000 -7.125000 0.000000 0.000000 -22.268399 61.300299 9.092436 0.000000 0.000000 0.000000 -1.621223 -2.633779 17.348358 -11.623532 -19.237701 -1.976493 -24.618819 -5.699023 -15.022810 0.000000 0.000000 0.000000 7.125000 0.000000 0.000000 1.995059 13.539699 1.473118
0.085183 18.140644 -12.782034 -2.104029 3.076867 4.336068 0.000000 0.000000 0.000000 -19.524241 -13.779573 -10.077610 2.149256 9.170369 26.329633 0.743890 2.919220 -17.604975 0.130080 2.323701 6.401115 0.000000 0.000000 0.000000 25.214574 9.632879 -13.128884 -2.927678 -10.577122 30.866460 -0.679960 -11.281852 -23.464332 -2.189510 -9.249362 26.579041 1.178902 -0.827796 1.215632 2.947156 -1.041298 -0.784537 2.388515 -0.516861 -1.452266 -5.006371 -3.261217 -16.912036 -0.946942 -2.921007 22.726666 0.103102 -1.895134 10.117541 0.000000 0.000000 0.000000 -4.924865 -0.514823 -7.941233 13.385461 -21.849420 2.595027 13.433522 23.025055 -31.717779 0.000000 0.000000 0.000000 -7.125000 0.000000 0.000000 -21.695963 61.095605 8.739980 0.000000 0.000000 0.000000 -1.825113 -2.922204 17.599656 -11.592696 -19.190970 -1.966359 -24.629214 -6.189636 -15.211879 0.000000 0.000000 0.000000 7.125000 0.000000 0.000000 2.002050 13.333485 1.487064
0.041946 18.142771 -12.759639 -1.855745 3.128604 4.544764 0.000000 0.000000 0.000000 -19.611491 -13.674222 -10.160876 2.122016 9.115703 26.157859 0.735338 2.865666 -17.484354 0.101965 2.058884 5.668444 0.000000 0.000000 0.000000 25.077353 9.494940 -13.367358 -2.940793 -10.598588 30.937661 -0.686803 -11.255179 -23.498543 -2.120356 -9.112332 26.147316 0.910230 -0.842733 1.302944 2.831593 -1.068344 -0.690535 2.421294 -0.528758 -1.401031 -4.893578 -3.155741 -16.795949 -0.803094 -2.851304 22.446209 0.149395 -1.832116 9.992370 0.000000 0.000000 0.000000 -4.758886 -0.793589 -7.841220 13.427259 -21.910020 2.610572 12.993146 22.835604 -31.417590 0.000000 0.000000 0.000000 -7.125000 0.000000 0.000000 -21.911179 60.713604 8.631683 0.000000 0.000000 0.000000 -1.692953 -3.148923 17.185021 -11.385809 -18.877173 -1.898896 -24.597207 -5.755603 -14.733346 0.000000 0.000000 0.000000 7.125000 0.000000 0.000000 1.988345 13.856415 1.455242
-0.023801 18.114745 -12.730197 -2.009904 2.713605 4.652263 0.000000 0.000000 0.000000 -19.122740 -13.213604 -10.618449 2.209432 9.289237 26.704353 0.803571 2.418871 -17.974592 0.116965 2.204726 6.071752 0.000000 0.000000 0.000000 25.428417 9.604188 -13.676283 -3.018634 -10.725110 31.358233 -0.699106 -11.062993 -23.420659 -2.098499 -9.068297 26.009229 0.847466 -0.677977 1.667583 2.852969 -0.839960 -0.690964 2.478506 -0.413185 -1.613134 -5.024797 -3.193522 -16.707880 -0.690749 -2.899656 22.606005 0.203801 -1.854529 10.038455 0.000000 0.000000 0.000000 -4.633906 -0.489335 -8.375160 13.734333 -22.353706 2.726263 13.058138 22.557844 -31.766657 0.000000 0.000000 0.000000 -7.125000 0.000000 0.000000 -22.136037 61.049424 8.902874 0.000000 0.000000 0.000000 -1.554126 -2.888509 17.350043 -11.641150 -19.264317 -1.982294 -24.359322 -5.444785 -14.438977 0.000000 0.000000 0.000000 7.125000 0.000000 0.000000 2.128901 14.204964 1.542484
-0.138074 18.060995 -12.712488 -2.515222 2.582996 4.410616 0.000000 0.000000 0.000000 -17.968304 -12.495442 -11.790983 2.524728 9.882786 28.597998 0.944173 1.108318 -18.791415 0.105836 2.097439 5.775102 0.000000 0.000000 0.000000 26.394218 9.740862 -13.697607 -3.139381 -10.917327 32.001626 -0.755757 -10.838506 -23.701125 -2.217021 -9.304294 26.751845 0.951955 -0.549177 3.020248 2.993371 -0.630840 -0.504569 2.574259 -0.307934 -2.188887 -4.820865 -3.078591 -16.945790 -0.855380 -2.738967 22.428006 0.132366 -1.779279 10.009383 0.000000 0.000000 0.000000 -4.385562 -0.862942 -8.507581 13.792652 -22.437450 2.748473 13.527594 22.471857 -31.759724 0.000000 0.000000 0.000000 -7.125000 0.000000 0.000000 -21.631380 61.156958 8.744118 0.000000 0.000000 0.000000 -1.285717 -2.969284 17.855854 -11.763694 -19.449249 -2.022931 -24.458979 -5.814590 -14.777983 0.000000 0.000000 0.000000 7.125000 0.000000 0.000000 2.085136 13.825477 1.527480
-0.281750 17.993309 -12.650729 -3.224899 2.579516 4.114611 0.000000 0.000000 0.000000 -16.474505 -11.801830 -14.761562 3.493587 11.453815 33.826581 1.035132 0.162372 -19.296250 0.000088 -0.065449 -0.179734 0.000000 0.000000 0.000000 27.675770 8.479718 -13.882873 -3.232766 -11.062693 32.491493 -0.846617 -9.968788 -23.695238 -1.944146 -8.748655 25.012192 1.657793 -0.303028 3.839725 3.085450 -0.262960 0.057863 2.257180 -0.132908 -2.087502 -4.950402 -2.993219 -16.968969 -0.986980 -2.548659 22.090314 0.136201 -1.711810 9.890658 0.000000 0.000000 0.000000 -4.151934 -1.680970 -8.523341 13.896405 -22.586401 2.788214 13.378941 22.371984 -32.123043 0.000000 0.000000 0.000000 -7.125000 0.000000 0.000000 -22.102238 61.454003 9.101667 0.000000 0.000000 0.000000 -1.099117 -3.237489 18.899504 -11.899674 -19.653942 -2.068434 -24.698504 -6.385793 -15.256959 0.000000 0.000000 0.000000 7.125000 0.000000 0.000000 1.958621 13.275800 1.457461
-0.449129 17.939501 -12.605395 -3.827823 5.596539 4.164445 0.000000 0.000000 0.000000 -13.709135 -11.397562 -23.758378 6.236062 14.652453 45.920447 0.643412 -3.699684 -14.348248 0.002066 0.183778 0.504967 0.000000 0.000000 0.000000 29.183564 7.624827 -14.201526 -3.236969 -11.069164 32.513414 -0.873691 -11.217126 -25.032627 -2.152909 -9.177391 26.352004 2.485626 -0.608840 5.403482 3.148248 -0.565317 0.262885 1.893714 -0.293244 -2.753188 -4.940017 -3.043734 -16.711402 -1.067848 -2.619057 21.604977 0.105099 -1.743116 9.670655 0.000000 0.000000 0.000000 -4.074867 -2.395388 -8.805385 14.159627 -22.962410 2.890122 12.908985 21.726130 -31.364464 0.000000 0.000000 0.000000 -7.125000 0.000000 0.000000 -21.956526 60.644498 8.614915 0.000000 0.000000 0.000000 -1.117361 -2.991626 18.881881 -12.380161 -20.372241 -2.232860 -24.636576 -7.363569 -14.798352 0.000000 0.000000 0.000000 7.125000 0.000000 0.000000 1.966473 13.780850 1.442329
